<?xml version="1.0" encoding="UTF-8"?>
<svg width="1440px" height="4573px" viewBox="0 0 1440 4573" xmlns="http://www.w3.org/2000/svg" xmlns:xlink="http://www.w3.org/1999/xlink" version="1.1">
 <!-- Generated by Pixelmator Pro 1.1.1 -->
 <defs>
  <path id="path" d="M0 1797 L0 4573 1440 4573 1440 2675.824 0 1797 Z"/>
 </defs>
 <defs>
  <linearGradient id="linear-gradient" gradientUnits="userSpaceOnUse" x1="23.262" y1="1833.236" x2="1440.926" y2="4526.756">
   <stop offset="0" stop-color="#7ac5fd" stop-opacity="1"/>
   <stop offset="1" stop-color="#d499ec" stop-opacity="1"/>
  </linearGradient>
 </defs>
 <use id="path-1" xlink:href="#path" fill="url(#linear-gradient)" fill-opacity="1" stroke="none"/>
 <defs>
  <linearGradient id="linear-gradient-1" gradientUnits="userSpaceOnUse" x1="5.449" y1="1795.509" x2="1446.199" y2="4531.071">
   <stop offset="0" stop-color="#7ac5fd" stop-opacity="1"/>
   <stop offset="1" stop-color="#d499ec" stop-opacity="1"/>
  </linearGradient>
 </defs>
 <defs>
  <path id="stroke-path" d="M1437.5 2677.234 L2.5 1801.453 2.5 4570.5 1437.5 4570.5 Z"/>
 </defs>
 <use id="path-2" stroke="url(#linear-gradient-1)" stroke-opacity="1" stroke-linecap="round" fill="none" stroke-width="5" xlink:href="#stroke-path"/>
 <defs>
  <linearGradient id="linear-gradient-2" gradientUnits="userSpaceOnUse" x1="734.013" y1="3572.095" x2="676.382" y2="949.993">
   <stop offset="0" stop-color="#e6dee9" stop-opacity="1"/>
   <stop offset="1" stop-color="#ffc9f3" stop-opacity="1"/>
  </linearGradient>
 </defs>
 <path id="path-3" d="M0 3250 L0 1143 1440 1143 1440 2682.936 Z" fill-opacity="1" fill="url(#linear-gradient-2)" stroke="none"/>
 <defs>
  <path id="path-4" d="M1440 2011.976 L0 1402.131 0 0 1440 0 Z"/>
 </defs>
 <defs>
  <linearGradient id="linear-gradient-3" gradientUnits="userSpaceOnUse" x1="23.262" y1="26.263" x2="1440.926" y2="1978.459">
   <stop offset="0" stop-color="#7ac5fd" stop-opacity="1"/>
   <stop offset="1" stop-color="#d499ec" stop-opacity="1"/>
  </linearGradient>
 </defs>
 <use id="path-5" xlink:href="#path-4" fill="url(#linear-gradient-3)" fill-opacity="1" stroke="none"/>
 <defs>
  <linearGradient id="linear-gradient-4" gradientUnits="userSpaceOnUse" x1="5.449" y1="-1.081" x2="1446.199" y2="1981.587">
   <stop offset="0" stop-color="#7ac5fd" stop-opacity="1"/>
   <stop offset="1" stop-color="#d499ec" stop-opacity="1"/>
  </linearGradient>
 </defs>
 <defs>
  <path id="stroke-path-1" d="M1437.5 2.516 L2.5 2.516 2.5 1400.5 1437.5 2008.219 Z"/>
 </defs>
 <use id="path-6" stroke="url(#linear-gradient-4)" stroke-opacity="1" stroke-linecap="round" fill="none" stroke-width="5" xlink:href="#stroke-path-1"/>
 <defs>
  <linearGradient id="linear-gradient-5" gradientUnits="userSpaceOnUse" x1="734.013" y1="754.784" x2="676.382" y2="-954.842">
   <stop offset="0" stop-color="#e6dee9" stop-opacity="1"/>
   <stop offset="1" stop-color="#ffc9f3" stop-opacity="1"/>
  </linearGradient>
 </defs>
 <path id="path-7" d="M1440 76.88 L0 544.776 0 -829 1440 -829 1440 76.88 Z" fill-opacity="1" fill="url(#linear-gradient-5)" stroke="none"/>
</svg>
